<svg width="948" height="280" viewBox="0 0 948 280" fill="none" xmlns="http://www.w3.org/2000/svg">
<path d="M45.434 131.64C37.4078 131.64 29.9549 130.256 23.0753 127.488C16.1957 124.721 10.6538 120.712 6.44962 115.463C2.24542 110.119 0.0955499 103.82 0 96.5669C0 95.708 0.28665 94.9922 0.859949 94.4196C1.5288 93.7515 2.2932 93.4175 3.15315 93.4175H32.3914C33.9202 93.4175 35.0668 93.7992 35.8312 94.5627C36.6912 95.2308 37.5033 96.376 38.2677 97.9984C39.2232 100.098 40.2743 101.577 41.4209 102.436C42.663 103.295 44.3829 103.725 46.5806 103.725C49.3515 103.725 51.4536 102.866 52.8869 101.148C54.3201 99.3346 55.0367 96.3283 55.0367 92.1291V59.0604H12.4693C11.4182 59.0604 10.5105 58.6786 9.74609 57.9152C8.98169 57.1517 8.59949 56.245 8.59949 55.1952V33.8652C8.59949 32.8154 8.98169 31.9087 9.74609 31.1452C10.5105 30.3817 11.4182 30 12.4693 30H88.2881C89.3392 30 90.2469 30.3817 91.0113 31.1452C91.7757 31.9087 92.1579 32.8154 92.1579 33.8652V93.2743C92.1579 101.768 90.1035 108.926 85.9949 114.748C81.9818 120.474 76.4399 124.721 69.3692 127.488C62.3941 130.256 54.4157 131.64 45.434 131.64Z" fill="#0F0F0F"/>
<path d="M99.6959 130.208C98.8359 130.208 98.0715 129.922 97.4027 129.349C96.8294 128.681 96.5427 127.918 96.5427 127.059C96.5427 126.677 96.5905 126.343 96.686 126.057L128.647 34.7241C129.03 33.4834 129.746 32.3859 130.797 31.4315C131.848 30.4772 133.282 30 135.097 30H166.199C168.014 30 169.447 30.4772 170.498 31.4315C171.549 32.3859 172.266 33.4834 172.648 34.7241L204.61 126.057C204.705 126.343 204.753 126.677 204.753 127.059C204.753 127.918 204.419 128.681 203.75 129.349C203.176 129.922 202.46 130.208 201.6 130.208H175.085C172.218 130.208 170.355 129.015 169.495 126.629L166.055 117.181H135.24L131.801 126.629C130.941 129.015 129.077 130.208 126.211 130.208H99.6959ZM158.746 89.266L150.576 62.6393L142.55 89.266H158.746Z" fill="#0F0F0F"/>
<path d="M228.974 130.208C227.923 130.208 227.015 129.826 226.251 129.063C225.486 128.3 225.104 127.393 225.104 126.343V98.1416L192.856 34.4378C192.665 34.056 192.569 33.6266 192.569 33.1494C192.569 32.2905 192.856 31.5747 193.429 31.0021C194.098 30.334 194.862 30 195.722 30H222.667C224.292 30 225.582 30.4295 226.537 31.2884C227.588 32.0519 228.305 32.8154 228.687 33.5789L243.02 62.3529L257.352 33.5789C257.734 32.8154 258.403 32.0519 259.359 31.2884C260.41 30.4295 261.747 30 263.372 30H290.317C291.177 30 291.893 30.334 292.467 31.0021C293.135 31.5747 293.47 32.2905 293.47 33.1494C293.47 33.6266 293.374 34.056 293.183 34.4378L260.935 98.1416V126.343C260.935 127.393 260.553 128.3 259.789 129.063C259.024 129.826 258.116 130.208 257.065 130.208H228.974Z" fill="#0F0F0F"/>
<path d="M305.647 130.208C304.596 130.208 303.688 129.826 302.924 129.063C302.159 128.3 301.777 127.393 301.777 126.343V33.8652C301.777 32.8154 302.159 31.9087 302.924 31.1452C303.688 30.3817 304.596 30 305.647 30H379.173C380.224 30 381.131 30.3817 381.896 31.1452C382.66 31.9087 383.042 32.8154 383.042 33.8652V54.05C383.042 55.0998 382.66 56.0064 381.896 56.7699C381.131 57.5334 380.224 57.9152 379.173 57.9152H336.175V66.9339H376.019C377.07 66.9339 377.978 67.3156 378.743 68.0791C379.507 68.8426 379.889 69.7493 379.889 70.7991V89.4092C379.889 90.459 379.507 91.3656 378.743 92.1291C377.978 92.8926 377.07 93.2743 376.019 93.2743H336.175V102.293H380.319C381.37 102.293 382.278 102.675 383.042 103.438C383.807 104.202 384.189 105.108 384.189 106.158V126.343C384.189 127.393 383.807 128.3 383.042 129.063C382.278 129.826 381.37 130.208 380.319 130.208H305.647Z" fill="#0F0F0F"/>
<path d="M10.3194 278.568C9.26834 278.568 8.36062 278.234 7.59622 277.566C6.83182 276.803 6.44962 275.848 6.44962 274.703V182.225C6.44962 181.176 6.83182 180.269 7.59622 179.505C8.36062 178.742 9.26834 178.36 10.3194 178.36H38.4111C39.4621 178.36 40.3698 178.742 41.1342 179.505C41.8986 180.269 42.2808 181.176 42.2808 182.225V212.288H65.4995V182.225C65.4995 181.176 65.8817 180.269 66.6461 179.505C67.4105 178.742 68.3182 178.36 69.3692 178.36H97.4609C98.5119 178.36 99.4197 178.742 100.184 179.505C100.948 180.269 101.331 181.176 101.331 182.225V274.703C101.331 275.753 100.948 276.66 100.184 277.423C99.4197 278.187 98.5119 278.568 97.4609 278.568H69.3692C68.3182 278.568 67.4105 278.187 66.6461 277.423C65.8817 276.66 65.4995 275.753 65.4995 274.703V243.782H42.2808V274.703C42.2808 275.753 41.8986 276.66 41.1342 277.423C40.3698 278.187 39.4621 278.568 38.4111 278.568H10.3194Z" fill="#0F0F0F"/>
<path d="M112.433 278.568C111.573 278.568 110.808 278.282 110.14 277.71C109.566 277.041 109.28 276.278 109.28 275.419C109.28 275.037 109.327 274.703 109.423 274.417L141.384 183.084C141.767 181.844 142.483 180.746 143.534 179.792C144.585 178.837 146.019 178.36 147.834 178.36H178.935C180.751 178.36 182.184 178.837 183.235 179.792C184.286 180.746 185.003 181.844 185.385 183.084L217.347 274.417C217.442 274.703 217.49 275.037 217.49 275.419C217.49 276.278 217.155 277.041 216.487 277.71C215.913 278.282 215.197 278.568 214.337 278.568H187.822C184.955 278.568 183.092 277.375 182.232 274.99L178.792 265.541H147.977L144.537 274.99C143.678 277.375 141.814 278.568 138.948 278.568H112.433ZM171.483 237.626L163.313 210.999L155.287 237.626H171.483Z" fill="#0F0F0F"/>
<path d="M268.41 280C253.982 280 242.516 276.851 234.012 270.552C225.509 264.158 220.97 254.375 220.397 241.205C220.301 238.628 220.253 234.429 220.253 228.607C220.253 222.69 220.301 218.396 220.397 215.724C220.97 202.935 225.604 193.296 234.299 186.806C242.994 180.221 254.365 176.929 268.41 176.929C277.01 176.929 284.893 178.217 292.059 180.794C299.321 183.371 305.197 187.427 309.688 192.962C314.274 198.402 316.615 205.273 316.711 213.576C316.711 214.435 316.376 215.199 315.708 215.867C315.134 216.439 314.418 216.726 313.558 216.726H284.32C282.791 216.726 281.644 216.439 280.88 215.867C280.211 215.294 279.59 214.197 279.016 212.574C277.965 209.711 276.58 207.707 274.86 206.562C273.14 205.416 270.943 204.844 268.267 204.844C264.923 204.844 262.343 205.75 260.528 207.564C258.712 209.282 257.757 212.24 257.661 216.439C257.566 219.016 257.518 222.977 257.518 228.321C257.518 233.666 257.566 237.722 257.661 240.489C257.757 244.689 258.712 247.695 260.528 249.508C262.343 251.226 264.923 252.085 268.267 252.085C273.713 252.085 277.297 249.508 279.016 244.354C279.494 242.732 280.068 241.635 280.736 241.062C281.501 240.489 282.695 240.203 284.32 240.203H313.558C314.418 240.203 315.134 240.537 315.708 241.205C316.376 241.778 316.711 242.493 316.711 243.352C316.615 251.655 314.274 258.575 309.688 264.11C305.197 269.55 299.321 273.558 292.059 276.135C284.893 278.712 277.01 280 268.41 280Z" fill="#0F0F0F"/>
<path d="M331.96 278.568C330.909 278.568 330.002 278.187 329.237 277.423C328.473 276.66 328.091 275.753 328.091 274.703V182.225C328.091 181.176 328.473 180.269 329.237 179.505C330.002 178.742 330.909 178.36 331.96 178.36H359.335C360.387 178.36 361.294 178.742 362.059 179.505C362.823 180.269 363.205 181.176 363.205 182.225V210.57L379.401 181.51C380.548 179.41 382.459 178.36 385.134 178.36H416.809C417.669 178.36 418.385 178.694 418.959 179.362C419.627 179.935 419.962 180.651 419.962 181.51C419.962 182.082 419.819 182.607 419.532 183.084L393.733 226.317L421.968 273.844C422.255 274.226 422.398 274.751 422.398 275.419C422.398 276.278 422.064 277.041 421.395 277.71C420.822 278.282 420.105 278.568 419.245 278.568H386.567C384.943 278.568 383.653 278.234 382.697 277.566C381.742 276.803 381.073 276.039 380.691 275.276L363.205 244.068V274.703C363.205 275.753 362.823 276.66 362.059 277.423C361.294 278.187 360.387 278.568 359.335 278.568H331.96Z" fill="#0F0F0F"/>
<path d="M434.415 278.568C433.364 278.568 432.457 278.187 431.692 277.423C430.928 276.66 430.546 275.753 430.546 274.703V182.225C430.546 181.176 430.928 180.269 431.692 179.505C432.457 178.742 433.364 178.36 434.415 178.36H507.941C508.992 178.36 509.9 178.742 510.664 179.505C511.429 180.269 511.811 181.176 511.811 182.225V202.41C511.811 203.46 511.429 204.367 510.664 205.13C509.9 205.894 508.992 206.275 507.941 206.275H464.944V215.294H504.788C505.839 215.294 506.747 215.676 507.511 216.439C508.275 217.203 508.658 218.109 508.658 219.159V237.769C508.658 238.819 508.275 239.726 507.511 240.489C506.747 241.253 505.839 241.635 504.788 241.635H464.944V250.653H509.088C510.139 250.653 511.046 251.035 511.811 251.799C512.575 252.562 512.957 253.469 512.957 254.518V274.703C512.957 275.753 512.575 276.66 511.811 277.423C511.046 278.187 510.139 278.568 509.088 278.568H434.415Z" fill="#0F0F0F"/>
<path d="M552.227 278.568C551.176 278.568 550.268 278.187 549.504 277.423C548.74 276.66 548.357 275.753 548.357 274.703V209.138H524.566C523.514 209.138 522.607 208.757 521.842 207.993C521.078 207.23 520.696 206.323 520.696 205.273V182.225C520.696 181.176 521.078 180.269 521.842 179.505C522.607 178.742 523.514 178.36 524.566 178.36H608.554C609.605 178.36 610.513 178.742 611.277 179.505C612.041 180.269 612.424 181.176 612.424 182.225V205.273C612.424 206.323 612.041 207.23 611.277 207.993C610.513 208.757 609.605 209.138 608.554 209.138H584.762V274.703C584.762 275.753 584.38 276.66 583.615 277.423C582.851 278.187 581.943 278.568 580.892 278.568H552.227Z" fill="#0F0F0F"/>
<path d="M648.804 278.568C647.752 278.568 646.845 278.187 646.08 277.423C645.316 276.66 644.934 275.753 644.934 274.703V209.138H621.142C620.091 209.138 619.183 208.757 618.419 207.993C617.654 207.23 617.272 206.323 617.272 205.273V182.225C617.272 181.176 617.654 180.269 618.419 179.505C619.183 178.742 620.091 178.36 621.142 178.36H705.13C706.181 178.36 707.089 178.742 707.853 179.505C708.618 180.269 709 181.176 709 182.225V205.273C709 206.323 708.618 207.23 707.853 207.993C707.089 208.757 706.181 209.138 705.13 209.138H681.338V274.703C681.338 275.753 680.956 276.66 680.192 277.423C679.427 278.187 678.52 278.568 677.469 278.568H648.804Z" fill="#0F0F0F"/>
<path d="M435.107 54.7787C434.546 54.667 434.101 54.3664 433.774 53.8767C433.447 53.3871 433.339 52.8615 433.451 52.3L443.29 2.83323C443.402 2.27169 443.702 1.82734 444.192 1.50018C444.682 1.17301 445.207 1.06528 445.769 1.17697L485.051 8.99038C485.613 9.10208 486.057 9.40273 486.384 9.89236C486.711 10.382 486.819 10.9076 486.707 11.4691L484.56 22.266C484.448 22.8276 484.147 23.2719 483.658 23.5991C483.168 23.9263 482.643 24.034 482.081 23.9223L459.109 19.3531L458.149 24.1772L479.437 28.4114C479.998 28.5231 480.443 28.8237 480.77 29.3134C481.097 29.803 481.205 30.3286 481.093 30.8901L479.113 40.8447C479.002 41.4063 478.701 41.8506 478.211 42.1778C477.722 42.5049 477.196 42.6127 476.634 42.501L455.347 38.2668L454.387 43.091L477.972 47.7821C478.534 47.8937 478.978 48.1944 479.305 48.684C479.632 49.1737 479.74 49.6992 479.628 50.2608L477.481 61.0577C477.369 61.6192 477.069 62.0636 476.579 62.3908C476.089 62.7179 475.564 62.8257 475.002 62.714L435.107 54.7787Z" fill="#1CDC80"/>
<path d="M481.587 64.0237C481.127 63.9323 480.75 63.6979 480.453 63.3206C480.218 62.9023 480.146 62.4634 480.237 62.004C480.298 61.6977 480.431 61.4322 480.635 61.2074L501.665 39.5193L491.899 12.9794C491.807 12.6426 491.786 12.3466 491.837 12.0914C491.928 11.6319 492.158 11.2795 492.525 11.0341C492.953 10.7479 493.397 10.6504 493.857 10.7418L510.473 14.0469C511.902 14.3312 512.848 15.1826 513.308 16.6009L516.81 27.0091L524.488 18.8246C525.457 17.6906 526.656 17.2657 528.085 17.55L543.936 20.7028C544.395 20.7942 544.743 21.049 544.978 21.4672C545.274 21.8446 545.377 22.263 545.285 22.7225C545.224 23.0288 545.092 23.2943 544.888 23.5191L525.449 44.0112L536.763 72.3716C536.866 72.6573 536.886 72.9533 536.825 73.2596C536.734 73.719 536.474 74.0919 536.046 74.3781C535.679 74.6235 535.265 74.7005 534.806 74.6091L517.577 71.1822C516.198 70.908 515.269 70.1128 514.787 68.7965L510.166 57.2105L501.77 66.2073C500.822 67.2393 499.658 67.6182 498.28 67.344L481.587 64.0237Z" fill="#1CDC80"/>
<path d="M542.789 76.1971C542.228 76.0854 541.783 75.7847 541.456 75.2951C541.129 74.8055 541.021 74.2799 541.133 73.7183L550.972 24.2516C551.084 23.69 551.384 23.2457 551.874 22.9185C552.364 22.5914 552.889 22.4836 553.451 22.5953L576.653 27.2103C583.8 28.6318 589.1 31.3313 592.555 35.3086C596.06 39.2961 597.198 44.3784 595.97 50.5553C594.751 56.6813 591.801 60.844 587.118 63.0436C582.445 65.1922 576.509 65.5506 569.311 64.1189L563.951 63.0527L561.042 77.6783C560.93 78.2399 560.63 78.6842 560.14 79.0114C559.651 79.3386 559.125 79.4463 558.563 79.3346L542.789 76.1971ZM571.746 49.8766C572.665 50.0593 573.548 49.89 574.395 49.3685C575.251 48.7959 575.817 47.8205 576.091 46.4422C576.325 45.268 576.247 44.1912 575.858 43.2117C575.469 42.2322 574.662 41.6205 573.437 41.3769L568.077 40.3107L566.386 48.8104L571.746 49.8766Z" fill="#1CDC80"/>
<path d="M596.78 86.936C596.218 86.8243 595.774 86.5236 595.447 86.034C595.12 85.5444 595.012 85.0188 595.124 84.4572L604.963 34.9905C605.074 34.429 605.375 33.9846 605.865 33.6574C606.354 33.3303 606.88 33.2225 607.441 33.3342L646.724 41.1476C647.285 41.2593 647.73 41.56 648.057 42.0496C648.384 42.5393 648.492 43.0648 648.38 43.6264L646.232 54.4233C646.121 54.9848 645.82 55.4292 645.33 55.7564C644.841 56.0835 644.315 56.1913 643.754 56.0796L620.782 51.5103L619.822 56.3345L641.11 60.5686C641.671 60.6803 642.115 60.981 642.443 61.4706C642.77 61.9602 642.878 62.4858 642.766 63.0474L640.786 73.002C640.674 73.5635 640.373 74.0079 639.884 74.335C639.394 74.6622 638.869 74.7699 638.307 74.6582L617.02 70.4241L616.06 75.2482L639.645 79.9393C640.206 80.051 640.651 80.3517 640.978 80.8413C641.305 81.3309 641.413 81.8565 641.301 82.418L639.154 93.215C639.042 93.7765 638.741 94.2209 638.252 94.548C637.762 94.8752 637.236 94.9829 636.675 94.8712L596.78 86.936Z" fill="#1CDC80"/>
<path d="M647.854 97.0948C647.292 96.9831 646.848 96.6825 646.521 96.1928C646.194 95.7032 646.086 95.1776 646.198 94.6161L656.037 45.1493C656.149 44.5878 656.449 44.1434 656.939 43.8163C657.428 43.4891 657.954 43.3814 658.516 43.4931L681.181 48.0014C688.533 49.4636 693.946 52.265 697.421 56.4056C700.906 60.4953 702.069 65.4499 700.912 71.2695C700.252 74.5877 698.928 77.3758 696.94 79.6338C694.962 81.8408 692.534 83.5072 689.657 84.6331L695.603 103.965C695.695 104.302 695.716 104.598 695.665 104.853C695.573 105.313 695.314 105.686 694.885 105.972C694.518 106.217 694.105 106.294 693.645 106.203L677.948 103.081C677.029 102.898 676.329 102.546 675.849 102.026C675.43 101.465 675.169 100.909 675.066 100.358L671.39 84.4226L668.25 83.7982L665.341 98.4238C665.229 98.9853 664.929 99.4297 664.439 99.7569C663.95 100.084 663.424 100.192 662.862 100.08L647.854 97.0948ZM676.734 70.361C677.857 70.5844 678.796 70.3996 679.551 69.8068C680.316 69.1629 680.81 68.2794 681.033 67.1563C681.257 66.0332 681.143 65.0024 680.693 64.0638C680.304 63.0842 679.523 62.4777 678.348 62.2442L672.759 61.1323L671.144 69.2491L676.734 70.361Z" fill="#1CDC80"/>
<path d="M703.116 108.087C702.554 107.975 702.11 107.674 701.783 107.185C701.456 106.695 701.348 106.169 701.46 105.608L711.299 56.1411C711.41 55.5796 711.711 55.1352 712.201 54.8081C712.69 54.4809 713.216 54.3732 713.777 54.4849L729.398 57.5919C729.96 57.7036 730.404 58.0043 730.732 58.4939C731.059 58.9835 731.166 59.5091 731.055 60.0707L721.216 109.537C721.104 110.099 720.803 110.543 720.314 110.87C719.824 111.198 719.298 111.305 718.737 111.194L703.116 108.087Z" fill="#1CDC80"/>
<path d="M731.308 113.694C730.746 113.582 730.302 113.282 729.974 112.792C729.647 112.302 729.54 111.777 729.651 111.215L739.49 61.7486C739.602 61.187 739.903 60.7427 740.392 60.4155C740.882 60.0883 741.408 59.9806 741.969 60.0923L781.252 67.9057C781.813 68.0174 782.257 68.3181 782.585 68.8077C782.912 69.2973 783.02 69.8229 782.908 70.3844L780.76 81.1814C780.649 81.7429 780.348 82.1873 779.858 82.5144C779.369 82.8416 778.843 82.9493 778.282 82.8376L755.309 78.2684L754.35 83.0925L775.637 87.3267C776.199 87.4384 776.643 87.7391 776.97 88.2287C777.298 88.7183 777.405 89.2439 777.294 89.8054L775.314 99.76C775.202 100.322 774.901 100.766 774.412 101.093C773.922 101.42 773.396 101.528 772.835 101.416L751.547 97.1821L750.588 102.006L774.173 106.697C774.734 106.809 775.178 107.11 775.506 107.599C775.833 108.089 775.941 108.615 775.829 109.176L773.681 119.973C773.57 120.535 773.269 120.979 772.779 121.306C772.29 121.633 771.764 121.741 771.203 121.629L731.308 113.694Z" fill="#1CDC80"/>
<path d="M782.382 123.853C781.82 123.741 781.376 123.441 781.049 122.951C780.722 122.461 780.614 121.936 780.725 121.374L790.565 71.9074C790.676 71.3459 790.977 70.9015 791.467 70.5743C791.956 70.2472 792.482 70.1394 793.043 70.2511L805.142 72.6576C806.571 72.9419 807.501 73.7371 807.931 75.0433L816.653 98.8283L820.811 77.9236C820.923 77.362 821.224 76.9177 821.713 76.5905C822.203 76.2634 822.728 76.1556 823.29 76.2673L837.15 79.0241C837.711 79.1358 838.156 79.4364 838.483 79.9261C838.81 80.4157 838.918 80.9413 838.806 81.5028L828.967 130.97C828.855 131.531 828.555 131.975 828.065 132.303C827.575 132.63 827.05 132.738 826.488 132.626L814.39 130.219C813.522 130.047 812.894 129.736 812.505 129.287C812.117 128.839 811.815 128.354 811.6 127.834L802.543 105.733L798.72 124.953C798.609 125.515 798.308 125.959 797.818 126.286C797.329 126.614 796.803 126.721 796.242 126.61L782.382 123.853Z" fill="#1CDC80"/>
<path d="M861.119 140.31C853.41 138.777 847.619 135.874 843.746 131.601C839.883 127.277 838.499 121.562 839.594 114.456C839.817 113.068 840.238 110.816 840.858 107.702C841.487 104.537 841.97 102.245 842.305 100.826C843.972 94.0462 847.473 89.3827 852.809 86.8354C858.155 84.237 864.58 83.6841 872.085 85.1767C876.679 86.0906 880.754 87.6174 884.308 89.7573C887.914 91.9073 890.622 94.7014 892.432 98.1395C894.304 101.537 894.823 105.461 893.991 109.912C893.9 110.372 893.64 110.745 893.211 111.031C892.844 111.276 892.431 111.353 891.971 111.262L876.35 108.155C875.533 107.992 874.951 107.717 874.604 107.33C874.307 106.953 874.092 106.299 873.959 105.371C873.702 103.728 873.175 102.508 872.378 101.713C871.581 100.918 870.468 100.378 869.038 100.093C867.251 99.738 865.777 99.9488 864.614 100.726C863.461 101.452 862.636 102.933 862.138 105.169C861.813 106.537 861.366 108.65 860.797 111.509C860.229 114.368 859.823 116.543 859.579 118.033C859.183 120.29 859.374 121.999 860.151 123.162C860.938 124.274 862.225 125.007 864.012 125.363C866.922 125.942 869.11 124.944 870.577 122.37C871.005 121.553 871.428 121.027 871.847 120.792C872.316 120.567 872.985 120.54 873.852 120.713L889.473 123.82C889.933 123.911 890.28 124.166 890.515 124.585C890.812 124.962 890.914 125.38 890.823 125.84C889.889 130.271 887.902 133.723 884.862 136.197C881.884 138.629 878.318 140.149 874.164 140.756C870.062 141.372 865.713 141.224 861.119 140.31Z" fill="#1CDC80"/>
<path d="M895.224 146.298C894.662 146.186 894.218 145.885 893.891 145.396C893.563 144.906 893.456 144.38 893.567 143.819L903.406 94.352C903.518 93.7905 903.819 93.3462 904.308 93.019C904.798 92.6918 905.324 92.5841 905.885 92.6958L945.168 100.509C945.729 100.621 946.173 100.922 946.501 101.411C946.828 101.901 946.936 102.426 946.824 102.988L944.676 113.785C944.565 114.346 944.264 114.791 943.774 115.118C943.285 115.445 942.759 115.553 942.198 115.441L919.225 110.872L918.266 115.696L939.553 119.93C940.115 120.042 940.559 120.343 940.886 120.832C941.214 121.322 941.321 121.847 941.21 122.409L939.23 132.364C939.118 132.925 938.817 133.369 938.328 133.697C937.838 134.024 937.312 134.131 936.751 134.02L915.463 129.786L914.504 134.61L938.089 139.301C938.65 139.413 939.095 139.713 939.422 140.203C939.749 140.692 939.857 141.218 939.745 141.78L937.597 152.577C937.486 153.138 937.185 153.582 936.695 153.91C936.206 154.237 935.68 154.344 935.119 154.233L895.224 146.298Z" fill="#1CDC80"/>
<path d="M419.369 133.905C418.807 133.793 418.363 133.493 418.036 133.003C417.708 132.513 417.601 131.988 417.712 131.426L427.551 81.9596C427.663 81.3981 427.964 80.9537 428.453 80.6265C428.943 80.2994 429.469 80.1917 430.03 80.3033L452.083 84.6898C456.933 85.6544 461.084 87.3292 464.537 89.7142C467.99 92.0992 470.524 95.0976 472.141 98.7094C473.758 102.321 474.201 106.363 473.471 110.835C473.004 113.714 472.669 115.664 472.466 116.685C472.273 117.655 471.852 119.508 471.201 122.244C469.494 129.228 466.044 134.035 460.851 136.663C455.709 139.302 449.36 139.87 441.805 138.368L419.369 133.905ZM444.392 123.36C446.179 123.715 447.71 123.489 448.985 122.681C450.321 121.832 451.243 120.397 451.752 118.376C452.148 116.916 452.58 115.011 453.047 112.663C453.524 110.264 453.849 108.365 454.021 106.966C454.325 104.904 453.966 103.24 452.944 101.976C451.973 100.721 450.568 99.9111 448.731 99.5456L444.136 98.6317L439.415 122.37L444.392 123.36Z" fill="#1CDC80"/>
<path d="M476.051 145.179C475.49 145.068 475.045 144.767 474.718 144.277C474.391 143.788 474.283 143.262 474.395 142.701L484.234 93.234C484.346 92.6724 484.646 92.2281 485.136 91.9009C485.626 91.5738 486.151 91.466 486.713 91.5777L525.995 99.3911C526.557 99.5028 527.001 99.8035 527.328 100.293C527.655 100.783 527.763 101.308 527.651 101.87L525.504 112.667C525.392 113.228 525.092 113.673 524.602 114C524.112 114.327 523.587 114.435 523.025 114.323L500.053 109.754L499.094 114.578L520.381 118.812C520.943 118.924 521.387 119.224 521.714 119.714C522.041 120.204 522.149 120.729 522.037 121.291L520.057 131.245C519.946 131.807 519.645 132.251 519.155 132.579C518.666 132.906 518.14 133.013 517.579 132.902L496.291 128.668L495.331 133.492L518.916 138.183C519.478 138.295 519.922 138.595 520.249 139.085C520.576 139.574 520.684 140.1 520.573 140.662L518.425 151.458C518.313 152.02 518.013 152.464 517.523 152.792C517.033 153.119 516.508 153.226 515.946 153.115L476.051 145.179Z" fill="#1CDC80"/>
<path d="M547.265 160.14C541.854 159.064 537.407 157.41 533.924 155.178C530.491 152.956 528.075 150.432 526.673 147.606C525.282 144.729 524.83 141.8 525.317 138.819C525.408 138.36 525.637 138.007 526.004 137.762C526.433 137.476 526.877 137.378 527.336 137.469L541.885 140.363C542.6 140.505 543.141 140.719 543.509 141.005C543.938 141.249 544.408 141.688 544.919 142.32C546.166 143.789 547.938 144.751 550.235 145.208C551.971 145.554 553.385 145.649 554.477 145.495C555.63 145.3 556.273 144.87 556.405 144.207C556.588 143.288 556.035 142.461 554.748 141.728C553.472 140.943 550.97 139.915 547.243 138.643C534.417 134.287 528.949 127.362 530.837 117.867C531.518 114.447 533.092 111.602 535.56 109.333C538.089 107.024 541.262 105.479 545.078 104.699C548.895 103.92 553.101 103.987 557.695 104.9C562.494 105.855 566.543 107.509 569.843 109.864C573.142 112.218 575.513 114.839 576.956 117.726C578.408 120.563 578.952 123.165 578.587 125.534C578.495 125.993 578.236 126.366 577.807 126.652C577.44 126.898 577.052 126.98 576.644 126.898L561.329 123.852C560.614 123.71 560.068 123.522 559.69 123.287C559.322 123.002 558.929 122.579 558.51 122.018C557.62 120.886 556.359 120.157 554.725 119.832C552.275 119.345 550.908 119.816 550.623 121.245C550.471 122.011 550.931 122.766 552.004 123.51C553.127 124.264 555.282 125.17 558.468 126.229C563.441 127.908 567.327 129.715 570.126 131.652C572.976 133.599 574.867 135.832 575.798 138.352C576.791 140.832 576.952 143.756 576.282 147.125C575.561 150.75 573.829 153.722 571.086 156.042C568.352 158.311 564.899 159.8 560.724 160.509C556.601 161.228 552.115 161.105 547.265 160.14Z" fill="#1CDC80"/>
<path d="M580.518 165.958C579.956 165.847 579.512 165.546 579.185 165.056C578.858 164.567 578.75 164.041 578.862 163.479L588.701 114.013C588.812 113.451 589.113 113.007 589.603 112.68C590.092 112.353 590.618 112.245 591.179 112.356L606.8 115.464C607.362 115.575 607.806 115.876 608.134 116.366C608.461 116.855 608.568 117.381 608.457 117.942L598.618 167.409C598.506 167.971 598.205 168.415 597.716 168.742C597.226 169.069 596.7 169.177 596.139 169.065L580.518 165.958Z" fill="#1CDC80"/>
<path d="M630.917 176.779C623.004 175.205 617.152 172.21 613.36 167.794C609.569 163.378 608.215 157.643 609.3 150.588C609.523 149.2 609.949 146.923 610.579 143.758C611.219 140.542 611.706 138.224 612.041 136.805C613.617 130.219 617.042 125.673 622.316 123.167C627.601 120.609 634.124 120.102 641.883 121.646C647.09 122.681 651.532 124.361 655.209 126.684C658.887 129.008 661.538 131.685 663.165 134.715C664.791 137.745 665.345 140.827 664.828 143.961C664.737 144.42 664.477 144.793 664.048 145.08C663.681 145.325 663.268 145.402 662.808 145.311L645.885 141.945C644.864 141.741 644.18 141.313 643.832 140.661C643.802 140.548 643.633 140.196 643.326 139.605C643.029 138.962 642.488 138.35 641.701 137.769C640.965 137.198 640.036 136.801 638.913 136.578C635.135 135.826 632.789 137.35 631.875 141.148C631.549 142.516 631.097 144.655 630.519 147.565C629.94 150.475 629.529 152.675 629.285 154.165C628.575 158.535 630.211 161.116 634.193 161.908C636.235 162.314 637.904 162.195 639.2 161.55C640.546 160.916 641.408 159.655 641.783 157.766L641.799 157.689L638.2 156.973C637.638 156.862 637.194 156.561 636.867 156.071C636.539 155.582 636.432 155.056 636.543 154.495L638.234 145.995C638.346 145.433 638.646 144.989 639.136 144.662C639.626 144.335 640.151 144.227 640.713 144.339L661.77 148.527C662.332 148.639 662.776 148.939 663.104 149.429C663.431 149.919 663.538 150.444 663.427 151.006L661.447 160.96C660.553 165.453 658.669 169.058 655.793 171.776C652.968 174.505 649.402 176.29 645.096 177.131C640.85 177.932 636.124 177.814 630.917 176.779Z" fill="#1CDC80"/>
<path d="M666.364 183.033C665.803 182.922 665.358 182.621 665.031 182.131C664.704 181.642 664.596 181.116 664.708 180.555L674.547 131.088C674.659 130.526 674.96 130.082 675.449 129.755C675.939 129.428 676.464 129.32 677.026 129.432L689.125 131.838C690.554 132.122 691.484 132.918 691.914 134.224L700.636 158.009L704.794 137.104C704.906 136.543 705.206 136.098 705.696 135.771C706.185 135.444 706.711 135.336 707.273 135.448L721.132 138.205C721.694 138.316 722.138 138.617 722.466 139.107C722.793 139.596 722.9 140.122 722.789 140.683L712.95 190.15C712.838 190.712 712.537 191.156 712.048 191.483C711.558 191.81 711.032 191.918 710.471 191.806L698.372 189.4C697.504 189.227 696.876 188.917 696.488 188.468C696.1 188.019 695.798 187.535 695.583 187.014L686.526 164.914L682.703 184.134C682.591 184.695 682.291 185.14 681.801 185.467C681.311 185.794 680.786 185.902 680.224 185.79L666.364 183.033Z" fill="#1CDC80"/>
<path d="M723.047 194.308C722.485 194.196 722.041 193.895 721.714 193.406C721.387 192.916 721.279 192.391 721.391 191.829L731.23 142.362C731.342 141.801 731.642 141.356 732.132 141.029C732.621 140.702 733.147 140.594 733.709 140.706L772.991 148.519C773.553 148.631 773.997 148.932 774.324 149.421C774.651 149.911 774.759 150.437 774.647 150.998L772.5 161.795C772.388 162.357 772.087 162.801 771.598 163.128C771.108 163.455 770.583 163.563 770.021 163.451L747.049 158.882L746.089 163.706L767.377 167.94C767.938 168.052 768.383 168.353 768.71 168.842C769.037 169.332 769.145 169.858 769.033 170.419L767.053 180.374C766.941 180.935 766.641 181.38 766.151 181.707C765.661 182.034 765.136 182.142 764.574 182.03L743.287 177.796L742.327 182.62L765.912 187.311C766.474 187.423 766.918 187.723 767.245 188.213C767.572 188.703 767.68 189.228 767.568 189.79L765.421 200.587C765.309 201.148 765.008 201.593 764.519 201.92C764.029 202.247 763.504 202.355 762.942 202.243L723.047 194.308Z" fill="#1CDC80"/>
<path d="M774.121 204.467C773.56 204.355 773.115 204.054 772.788 203.565C772.461 203.075 772.353 202.549 772.465 201.988L782.304 152.521C782.416 151.96 782.716 151.515 783.206 151.188C783.696 150.861 784.221 150.753 784.783 150.865L807.449 155.373C814.8 156.835 820.213 159.637 823.688 163.777C827.173 167.867 828.337 172.822 827.179 178.641C826.519 181.96 825.195 184.748 823.207 187.006C821.229 189.213 818.801 190.879 815.924 192.005L821.87 211.337C821.962 211.674 821.983 211.97 821.932 212.225C821.841 212.685 821.581 213.057 821.152 213.344C820.785 213.589 820.372 213.666 819.912 213.575L804.215 210.452C803.296 210.27 802.596 209.918 802.116 209.398C801.697 208.837 801.436 208.281 801.333 207.73L797.657 191.794L794.517 191.17L791.608 205.796C791.497 206.357 791.196 206.801 790.706 207.129C790.217 207.456 789.691 207.564 789.13 207.452L774.121 204.467ZM803.001 177.733C804.124 177.956 805.063 177.771 805.818 177.179C806.583 176.535 807.077 175.651 807.3 174.528C807.524 173.405 807.41 172.374 806.96 171.436C806.571 170.456 805.79 169.85 804.616 169.616L799.026 168.504L797.411 176.621L803.001 177.733Z" fill="#1CDC80"/>
</svg>
