<svg width="709" height="457" viewBox="0 0 709 457" fill="none" xmlns="http://www.w3.org/2000/svg">
<path d="M45.434 101.64C37.4078 101.64 29.9549 100.256 23.0753 97.4883C16.1957 94.7206 10.6538 90.7123 6.44962 85.4633C2.24542 80.1189 0.0955499 73.8201 0 66.5669C0 65.708 0.28665 64.9922 0.859949 64.4196C1.5288 63.7515 2.2932 63.4175 3.15315 63.4175H32.3914C33.9202 63.4175 35.0668 63.7992 35.8312 64.5627C36.6912 65.2308 37.5033 66.376 38.2677 67.9984C39.2232 70.098 40.2743 71.5773 41.4209 72.4362C42.663 73.2952 44.3829 73.7246 46.5806 73.7246C49.3515 73.7246 51.4536 72.8657 52.8869 71.1478C54.3201 69.3346 55.0367 66.3283 55.0367 62.1291V29.0604H12.4693C11.4182 29.0604 10.5105 28.6786 9.74609 27.9152C8.98169 27.1517 8.59949 26.245 8.59949 25.1952V3.86518C8.59949 2.81538 8.98169 1.90873 9.74609 1.14524C10.5105 0.381748 11.4182 0 12.4693 0H88.2881C89.3392 0 90.2469 0.381748 91.0113 1.14524C91.7757 1.90873 92.1579 2.81538 92.1579 3.86518V63.2743C92.1579 71.7682 90.1035 78.9259 85.9949 84.7475C81.9818 90.4737 76.4399 94.7206 69.3692 97.4883C62.3941 100.256 54.4157 101.64 45.434 101.64Z" fill="#0F0F0F"/>
<path d="M99.6959 100.208C98.8359 100.208 98.0715 99.9219 97.4027 99.3493C96.8294 98.6812 96.5427 97.9178 96.5427 97.0588C96.5427 96.6771 96.5905 96.3431 96.686 96.0567L128.647 4.7241C129.03 3.48343 129.746 2.38592 130.797 1.43155C131.848 0.477183 133.282 0 135.097 0H166.199C168.014 0 169.447 0.477183 170.498 1.43155C171.549 2.38592 172.266 3.48343 172.648 4.7241L204.61 96.0567C204.705 96.3431 204.753 96.6771 204.753 97.0588C204.753 97.9178 204.419 98.6812 203.75 99.3493C203.176 99.9219 202.46 100.208 201.6 100.208H175.085C172.218 100.208 170.355 99.0153 169.495 96.6294L166.055 87.1812H135.24L131.801 96.6294C130.941 99.0153 129.077 100.208 126.211 100.208H99.6959ZM158.746 59.266L150.576 32.6393L142.55 59.266H158.746Z" fill="#0F0F0F"/>
<path d="M228.974 100.208C227.923 100.208 227.015 99.8265 226.251 99.063C225.486 98.2995 225.104 97.3929 225.104 96.3431V68.1416L192.856 4.43779C192.665 4.05605 192.569 3.62659 192.569 3.1494C192.569 2.29048 192.856 1.5747 193.429 1.00209C194.098 0.33403 194.862 0 195.722 0H222.667C224.292 0 225.582 0.429466 226.537 1.28839C227.588 2.05189 228.305 2.81538 228.687 3.57887L243.02 32.3529L257.352 3.57887C257.734 2.81538 258.403 2.05189 259.359 1.28839C260.41 0.429466 261.747 0 263.372 0H290.317C291.177 0 291.893 0.33403 292.467 1.00209C293.135 1.5747 293.47 2.29048 293.47 3.1494C293.47 3.62659 293.374 4.05605 293.183 4.43779L260.935 68.1416V96.3431C260.935 97.3929 260.553 98.2995 259.789 99.063C259.024 99.8265 258.116 100.208 257.065 100.208H228.974Z" fill="#0F0F0F"/>
<path d="M305.647 100.208C304.596 100.208 303.688 99.8265 302.924 99.063C302.159 98.2995 301.777 97.3929 301.777 96.3431V3.86518C301.777 2.81538 302.159 1.90873 302.924 1.14524C303.688 0.381748 304.596 0 305.647 0H379.173C380.224 0 381.131 0.381748 381.896 1.14524C382.66 1.90873 383.042 2.81538 383.042 3.86518V24.05C383.042 25.0998 382.66 26.0064 381.896 26.7699C381.131 27.5334 380.224 27.9152 379.173 27.9152H336.175V36.9339H376.019C377.07 36.9339 377.978 37.3156 378.743 38.0791C379.507 38.8426 379.889 39.7493 379.889 40.7991V59.4092C379.889 60.459 379.507 61.3656 378.743 62.1291C377.978 62.8926 377.07 63.2743 376.019 63.2743H336.175V72.2931H380.319C381.37 72.2931 382.278 72.6748 383.042 73.4383C383.807 74.2018 384.189 75.1085 384.189 76.1583V96.3431C384.189 97.3929 383.807 98.2995 383.042 99.063C382.278 99.8265 381.37 100.208 380.319 100.208H305.647Z" fill="#0F0F0F"/>
<path d="M10.3194 248.568C9.26834 248.568 8.36062 248.234 7.59622 247.566C6.83182 246.803 6.44962 245.848 6.44962 244.703V152.225C6.44962 151.176 6.83182 150.269 7.59622 149.505C8.36062 148.742 9.26834 148.36 10.3194 148.36H38.4111C39.4621 148.36 40.3698 148.742 41.1342 149.505C41.8986 150.269 42.2808 151.176 42.2808 152.225V182.288H65.4995V152.225C65.4995 151.176 65.8817 150.269 66.6461 149.505C67.4105 148.742 68.3182 148.36 69.3692 148.36H97.4609C98.5119 148.36 99.4197 148.742 100.184 149.505C100.948 150.269 101.331 151.176 101.331 152.225V244.703C101.331 245.753 100.948 246.66 100.184 247.423C99.4197 248.187 98.5119 248.568 97.4609 248.568H69.3692C68.3182 248.568 67.4105 248.187 66.6461 247.423C65.8817 246.66 65.4995 245.753 65.4995 244.703V213.782H42.2808V244.703C42.2808 245.753 41.8986 246.66 41.1342 247.423C40.3698 248.187 39.4621 248.568 38.4111 248.568H10.3194Z" fill="#0F0F0F"/>
<path d="M112.433 248.568C111.573 248.568 110.808 248.282 110.14 247.71C109.566 247.041 109.28 246.278 109.28 245.419C109.28 245.037 109.327 244.703 109.423 244.417L141.384 153.084C141.767 151.844 142.483 150.746 143.534 149.792C144.585 148.837 146.019 148.36 147.834 148.36H178.935C180.751 148.36 182.184 148.837 183.235 149.792C184.286 150.746 185.003 151.844 185.385 153.084L217.347 244.417C217.442 244.703 217.49 245.037 217.49 245.419C217.49 246.278 217.155 247.041 216.487 247.71C215.913 248.282 215.197 248.568 214.337 248.568H187.822C184.955 248.568 183.092 247.375 182.232 244.99L178.792 235.541H147.977L144.537 244.99C143.678 247.375 141.814 248.568 138.948 248.568H112.433ZM171.483 207.626L163.313 180.999L155.287 207.626H171.483Z" fill="#0F0F0F"/>
<path d="M268.41 250C253.982 250 242.516 246.851 234.012 240.552C225.509 234.158 220.97 224.375 220.397 211.205C220.301 208.628 220.253 204.429 220.253 198.607C220.253 192.69 220.301 188.396 220.397 185.724C220.97 172.935 225.604 163.296 234.299 156.806C242.994 150.221 254.365 146.929 268.41 146.929C277.01 146.929 284.893 148.217 292.059 150.794C299.321 153.371 305.197 157.427 309.688 162.962C314.274 168.402 316.615 175.273 316.711 183.576C316.711 184.435 316.376 185.199 315.708 185.867C315.134 186.439 314.418 186.726 313.558 186.726H284.32C282.791 186.726 281.644 186.439 280.88 185.867C280.211 185.294 279.59 184.197 279.016 182.574C277.965 179.711 276.58 177.707 274.86 176.562C273.14 175.416 270.943 174.844 268.267 174.844C264.923 174.844 262.343 175.75 260.528 177.564C258.712 179.282 257.757 182.24 257.661 186.439C257.566 189.016 257.518 192.977 257.518 198.321C257.518 203.666 257.566 207.722 257.661 210.489C257.757 214.689 258.712 217.695 260.528 219.508C262.343 221.226 264.923 222.085 268.267 222.085C273.713 222.085 277.297 219.508 279.016 214.354C279.494 212.732 280.068 211.635 280.736 211.062C281.501 210.489 282.695 210.203 284.32 210.203H313.558C314.418 210.203 315.134 210.537 315.708 211.205C316.376 211.778 316.711 212.493 316.711 213.352C316.615 221.655 314.274 228.575 309.688 234.11C305.197 239.55 299.321 243.558 292.059 246.135C284.893 248.712 277.01 250 268.41 250Z" fill="#0F0F0F"/>
<path d="M331.96 248.568C330.909 248.568 330.002 248.187 329.237 247.423C328.473 246.66 328.091 245.753 328.091 244.703V152.225C328.091 151.176 328.473 150.269 329.237 149.505C330.002 148.742 330.909 148.36 331.96 148.36H359.335C360.387 148.36 361.294 148.742 362.059 149.505C362.823 150.269 363.205 151.176 363.205 152.225V180.57L379.401 151.51C380.548 149.41 382.459 148.36 385.134 148.36H416.809C417.669 148.36 418.385 148.694 418.959 149.362C419.627 149.935 419.962 150.651 419.962 151.51C419.962 152.082 419.819 152.607 419.532 153.084L393.733 196.317L421.968 243.844C422.255 244.226 422.398 244.751 422.398 245.419C422.398 246.278 422.064 247.041 421.395 247.71C420.822 248.282 420.105 248.568 419.245 248.568H386.567C384.943 248.568 383.653 248.234 382.697 247.566C381.742 246.803 381.073 246.039 380.691 245.276L363.205 214.068V244.703C363.205 245.753 362.823 246.66 362.059 247.423C361.294 248.187 360.387 248.568 359.335 248.568H331.96Z" fill="#0F0F0F"/>
<path d="M434.415 248.568C433.364 248.568 432.457 248.187 431.692 247.423C430.928 246.66 430.546 245.753 430.546 244.703V152.225C430.546 151.176 430.928 150.269 431.692 149.505C432.457 148.742 433.364 148.36 434.415 148.36H507.941C508.992 148.36 509.9 148.742 510.664 149.505C511.429 150.269 511.811 151.176 511.811 152.225V172.41C511.811 173.46 511.429 174.367 510.664 175.13C509.9 175.894 508.992 176.275 507.941 176.275H464.944V185.294H504.788C505.839 185.294 506.747 185.676 507.511 186.439C508.275 187.203 508.658 188.109 508.658 189.159V207.769C508.658 208.819 508.275 209.726 507.511 210.489C506.747 211.253 505.839 211.635 504.788 211.635H464.944V220.653H509.088C510.139 220.653 511.046 221.035 511.811 221.799C512.575 222.562 512.957 223.469 512.957 224.518V244.703C512.957 245.753 512.575 246.66 511.811 247.423C511.046 248.187 510.139 248.568 509.088 248.568H434.415Z" fill="#0F0F0F"/>
<path d="M552.227 248.568C551.176 248.568 550.268 248.187 549.504 247.423C548.74 246.66 548.357 245.753 548.357 244.703V179.138H524.566C523.514 179.138 522.607 178.757 521.842 177.993C521.078 177.23 520.696 176.323 520.696 175.273V152.225C520.696 151.176 521.078 150.269 521.842 149.505C522.607 148.742 523.514 148.36 524.566 148.36H608.554C609.605 148.36 610.513 148.742 611.277 149.505C612.041 150.269 612.424 151.176 612.424 152.225V175.273C612.424 176.323 612.041 177.23 611.277 177.993C610.513 178.757 609.605 179.138 608.554 179.138H584.762V244.703C584.762 245.753 584.38 246.66 583.615 247.423C582.851 248.187 581.943 248.568 580.892 248.568H552.227Z" fill="#0F0F0F"/>
<path d="M648.804 248.568C647.752 248.568 646.845 248.187 646.08 247.423C645.316 246.66 644.934 245.753 644.934 244.703V179.138H621.142C620.091 179.138 619.183 178.757 618.419 177.993C617.654 177.23 617.272 176.323 617.272 175.273V152.225C617.272 151.176 617.654 150.269 618.419 149.505C619.183 148.742 620.091 148.36 621.142 148.36H705.13C706.181 148.36 707.089 148.742 707.853 149.505C708.618 150.269 709 151.176 709 152.225V175.273C709 176.323 708.618 177.23 707.853 177.993C707.089 178.757 706.181 179.138 705.13 179.138H681.338V244.703C681.338 245.753 680.956 246.66 680.192 247.423C679.427 248.187 678.52 248.568 677.469 248.568H648.804Z" fill="#0F0F0F"/>
<path d="M16.0464 358.395C15.3608 358.462 14.7442 358.271 14.1965 357.821C13.6489 357.372 13.3414 356.804 13.274 356.118L7.33988 295.72C7.27252 295.035 7.46366 294.418 7.91331 293.871C8.36296 293.323 8.9306 293.015 9.61623 292.948L57.5793 288.236C58.2649 288.168 58.8816 288.359 59.4292 288.809C59.9768 289.259 60.2843 289.826 60.3517 290.512L61.6469 303.695C61.7143 304.381 61.5232 304.997 61.0735 305.545C60.6239 306.092 60.0562 306.4 59.3706 306.467L31.322 309.223L31.9007 315.113L57.8924 312.56C58.578 312.492 59.1947 312.683 59.7423 313.133C60.2899 313.583 60.5974 314.15 60.6648 314.836L61.859 326.99C61.9263 327.676 61.7352 328.293 61.2856 328.84C60.8359 329.388 60.2683 329.695 59.5826 329.763L33.5909 332.316L34.1697 338.207L62.9662 335.377C63.6518 335.31 64.2685 335.501 64.8161 335.951C65.3637 336.4 65.6712 336.968 65.7386 337.654L67.0338 350.836C67.1012 351.522 66.9101 352.139 66.4604 352.686C66.0108 353.234 65.4431 353.542 64.7575 353.609L16.0464 358.395Z" fill="#1CDC80"/>
<path d="M72.7973 352.819C72.2364 352.874 71.7194 352.736 71.2463 352.405C70.8294 352.005 70.5935 351.525 70.5383 350.964C70.5016 350.59 70.5614 350.238 70.7178 349.908L87.3664 317.593L66.8573 290.439C66.6335 290.084 66.5064 289.75 66.4757 289.438C66.4206 288.877 66.5617 288.392 66.8989 287.981C67.2924 287.502 67.7696 287.234 68.3305 287.179L88.619 285.186C90.3643 285.015 91.7497 285.665 92.7755 287.138L100.441 297.901L106.426 285.796C107.145 284.152 108.378 283.245 110.123 283.073L129.476 281.172C130.037 281.117 130.526 281.289 130.943 281.688C131.416 282.02 131.68 282.466 131.735 283.027C131.772 283.401 131.712 283.753 131.556 284.083L116.322 314.465L139.25 343.175C139.467 343.468 139.595 343.802 139.631 344.176C139.686 344.737 139.517 345.257 139.124 345.736C138.787 346.147 138.338 346.38 137.777 346.435L116.74 348.502C115.057 348.667 113.709 348.076 112.696 346.728L103.331 334.999L96.8013 348.289C96.0696 349.809 94.8622 350.651 93.1793 350.816L72.7973 352.819Z" fill="#1CDC80"/>
<path d="M147.524 345.477C146.839 345.544 146.222 345.353 145.674 344.904C145.127 344.454 144.819 343.886 144.752 343.201L138.818 282.803C138.75 282.117 138.941 281.5 139.391 280.953C139.841 280.405 140.408 280.098 141.094 280.03L169.423 277.247C178.149 276.39 185.195 277.648 190.562 281.023C195.99 284.391 199.075 289.846 199.816 297.388C200.551 304.868 198.605 310.691 193.98 314.859C189.349 318.964 182.639 321.448 173.851 322.312L167.306 322.955L169.061 340.812C169.128 341.498 168.937 342.115 168.487 342.662C168.037 343.21 167.47 343.517 166.784 343.585L147.524 345.477ZM171.684 305.061C172.806 304.951 173.763 304.448 174.556 303.552C175.343 302.593 175.654 301.273 175.489 299.59C175.348 298.156 174.882 296.943 174.093 295.951C173.303 294.959 172.16 294.536 170.664 294.683L164.119 295.326L165.139 305.704L171.684 305.061Z" fill="#1CDC80"/>
<path d="M213.446 339C212.76 339.068 212.143 338.876 211.596 338.427C211.048 337.977 210.741 337.409 210.673 336.724L204.739 276.326C204.672 275.64 204.863 275.024 205.313 274.476C205.762 273.928 206.33 273.621 207.015 273.553L254.979 268.841C255.664 268.774 256.281 268.965 256.828 269.414C257.376 269.864 257.684 270.432 257.751 271.117L259.046 284.3C259.114 284.986 258.922 285.602 258.473 286.15C258.023 286.698 257.455 287.005 256.77 287.073L228.721 289.828L229.3 295.719L255.292 293.165C255.977 293.098 256.594 293.289 257.142 293.738C257.689 294.188 257.997 294.756 258.064 295.441L259.258 307.596C259.326 308.281 259.134 308.898 258.685 309.446C258.235 309.993 257.667 310.301 256.982 310.368L230.99 312.922L231.569 318.812L260.365 315.983C261.051 315.915 261.668 316.106 262.215 316.556C262.763 317.006 263.07 317.573 263.138 318.259L264.433 331.442C264.5 332.127 264.309 332.744 263.86 333.292C263.41 333.839 262.842 334.147 262.157 334.214L213.446 339Z" fill="#1CDC80"/>
<path d="M275.806 332.873C275.121 332.941 274.504 332.749 273.956 332.3C273.409 331.85 273.101 331.282 273.034 330.597L267.1 270.199C267.032 269.513 267.223 268.897 267.673 268.349C268.123 267.801 268.69 267.494 269.376 267.426L297.051 264.707C306.026 263.826 313.237 265.162 318.684 268.718C324.125 272.211 327.194 277.51 327.892 284.616C328.29 288.667 327.739 292.34 326.237 295.634C324.73 298.866 322.516 301.632 319.595 303.933L333.19 324.12C333.413 324.476 333.541 324.809 333.571 325.121C333.626 325.682 333.457 326.202 333.064 326.681C332.727 327.092 332.277 327.325 331.716 327.38L312.55 329.263C311.428 329.373 310.5 329.213 309.765 328.781C309.087 328.282 308.592 327.732 308.282 327.134L298.486 310.066L294.653 310.443L296.408 328.3C296.475 328.986 296.284 329.603 295.834 330.15C295.385 330.698 294.817 331.005 294.131 331.073L275.806 332.873ZM299.733 292.008C301.104 291.873 302.121 291.333 302.783 290.387C303.439 289.378 303.7 288.188 303.565 286.817C303.431 285.446 302.94 284.298 302.094 283.375C301.305 282.382 300.193 281.957 298.759 282.098L291.934 282.768L292.908 292.679L299.733 292.008Z" fill="#1CDC80"/>
<path d="M343.28 326.244C342.594 326.311 341.978 326.12 341.43 325.67C340.882 325.221 340.575 324.653 340.508 323.967L334.573 263.57C334.506 262.884 334.697 262.267 335.147 261.72C335.596 261.172 336.164 260.864 336.85 260.797L355.923 258.923C356.608 258.856 357.225 259.047 357.773 259.497C358.32 259.946 358.628 260.514 358.695 261.2L364.629 321.597C364.697 322.283 364.506 322.9 364.056 323.447C363.606 323.995 363.039 324.302 362.353 324.37L343.28 326.244Z" fill="#1CDC80"/>
<path d="M377.702 322.862C377.016 322.929 376.399 322.738 375.852 322.288C375.304 321.839 374.996 321.271 374.929 320.586L368.995 260.188C368.928 259.502 369.119 258.885 369.568 258.338C370.018 257.79 370.586 257.483 371.271 257.415L419.234 252.703C419.92 252.635 420.537 252.827 421.084 253.276C421.632 253.726 421.939 254.293 422.007 254.979L423.302 268.162C423.369 268.848 423.178 269.464 422.729 270.012C422.279 270.559 421.711 270.867 421.026 270.934L392.977 273.69L393.556 279.58L419.548 277.027C420.233 276.959 420.85 277.15 421.397 277.6C421.945 278.05 422.253 278.617 422.32 279.303L423.514 291.457C423.581 292.143 423.39 292.76 422.941 293.307C422.491 293.855 421.923 294.162 421.238 294.23L395.246 296.783L395.825 302.674L424.621 299.844C425.307 299.777 425.924 299.968 426.471 300.418C427.019 300.867 427.326 301.435 427.394 302.121L428.689 315.304C428.756 315.989 428.565 316.606 428.116 317.153C427.666 317.701 427.098 318.009 426.413 318.076L377.702 322.862Z" fill="#1CDC80"/>
<path d="M440.062 316.735C439.377 316.802 438.76 316.611 438.212 316.161C437.665 315.712 437.357 315.144 437.29 314.459L431.356 254.061C431.288 253.375 431.479 252.758 431.929 252.211C432.379 251.663 432.946 251.356 433.632 251.288L448.404 249.837C450.149 249.665 451.498 250.257 452.449 251.611L470.794 275.956L468.286 250.432C468.219 249.746 468.41 249.13 468.86 248.582C469.309 248.035 469.877 247.727 470.563 247.66L487.485 245.997C488.171 245.93 488.787 246.121 489.335 246.57C489.883 247.02 490.19 247.588 490.258 248.273L496.192 308.671C496.259 309.357 496.068 309.974 495.618 310.521C495.169 311.069 494.601 311.376 493.915 311.444L479.143 312.895C478.084 312.999 477.252 312.861 476.648 312.479C476.044 312.098 475.528 311.646 475.099 311.121L456.955 288.832L459.261 312.3C459.329 312.985 459.137 313.602 458.688 314.15C458.238 314.697 457.67 315.005 456.985 315.072L440.062 316.735Z" fill="#1CDC80"/>
<path d="M536.476 308.206C527.064 309.131 519.383 307.809 513.431 304.24C507.473 300.609 503.885 294.511 502.666 285.946C502.438 284.269 502.137 281.53 501.764 277.728C501.384 273.863 501.14 271.055 501.031 269.304C500.584 260.915 502.989 254.323 508.244 249.527C513.494 244.669 520.7 241.79 529.862 240.889C535.472 240.338 540.697 240.675 545.537 241.898C550.439 243.116 554.533 245.388 557.818 248.715C561.159 251.974 563.127 256.312 563.722 261.729C563.777 262.29 563.608 262.81 563.214 263.289C562.877 263.7 562.428 263.932 561.867 263.988L542.794 265.862C541.797 265.96 541.03 265.846 540.495 265.521C540.022 265.19 539.546 264.513 539.068 263.49C538.199 261.687 537.166 260.467 535.971 259.83C534.775 259.192 533.305 258.959 531.56 259.13C529.378 259.345 527.754 260.102 526.686 261.403C525.612 262.641 525.178 264.634 525.385 267.383C525.488 269.072 525.711 271.662 526.054 275.152C526.397 278.643 526.689 281.289 526.929 283.09C527.26 285.827 528.077 287.729 529.377 288.797C530.672 289.802 532.41 290.198 534.591 289.984C538.144 289.635 540.316 287.722 541.107 284.246C541.315 283.156 541.619 282.402 542.018 281.985C542.48 281.562 543.241 281.299 544.3 281.195L563.373 279.321C563.934 279.266 564.423 279.438 564.84 279.837C565.313 280.169 565.577 280.615 565.632 281.176C566.103 286.604 565.02 291.273 562.383 295.183C559.803 299.023 556.227 302.018 551.655 304.166C547.145 306.308 542.086 307.655 536.476 308.206Z" fill="#1CDC80"/>
<path d="M577.84 303.198C577.154 303.265 576.538 303.074 575.99 302.625C575.442 302.175 575.135 301.607 575.067 300.922L569.133 240.524C569.066 239.838 569.257 239.222 569.707 238.674C570.156 238.126 570.724 237.819 571.41 237.751L619.373 233.039C620.058 232.972 620.675 233.163 621.223 233.612C621.77 234.062 622.078 234.63 622.145 235.315L623.44 248.498C623.508 249.184 623.317 249.8 622.867 250.348C622.417 250.896 621.85 251.203 621.164 251.271L593.115 254.026L593.694 259.917L619.686 257.363C620.371 257.295 620.988 257.487 621.536 257.936C622.083 258.386 622.391 258.954 622.458 259.639L623.652 271.794C623.72 272.479 623.529 273.096 623.079 273.643C622.629 274.191 622.062 274.499 621.376 274.566L595.384 277.12L595.963 283.01L624.76 280.181C625.445 280.113 626.062 280.304 626.61 280.754C627.157 281.204 627.465 281.771 627.532 282.457L628.827 295.64C628.895 296.325 628.703 296.942 628.254 297.49C627.804 298.037 627.237 298.345 626.551 298.412L577.84 303.198Z" fill="#1CDC80"/>
<path d="M25.5386 455.007C24.853 455.074 24.2364 454.883 23.6887 454.433C23.1411 453.983 22.8336 453.416 22.7662 452.73L16.8321 392.332C16.7647 391.647 16.9559 391.03 17.4055 390.482C17.8552 389.935 18.4228 389.627 19.1084 389.56L46.0351 386.914C51.9564 386.333 57.3213 386.812 62.1297 388.354C66.9381 389.895 70.9034 392.463 74.0257 396.058C77.1479 399.653 79.0689 404.153 79.7886 409.557C80.2563 413.036 80.5513 415.398 80.6738 416.645C80.7901 417.829 80.9513 420.11 81.1574 423.488C81.6285 432.127 79.3328 438.866 74.2703 443.705C69.2701 448.539 62.1576 451.409 52.9327 452.315L25.5386 455.007ZM50.674 434.129C52.8556 433.915 54.5396 433.12 55.726 431.745C56.9687 430.301 57.5299 428.327 57.4096 425.821C57.3566 424.002 57.1893 421.658 56.9076 418.791C56.6198 415.861 56.3309 413.561 56.0408 411.891C55.6712 409.41 54.6772 407.619 53.0588 406.52C51.5027 405.414 49.6028 404.971 47.3589 405.192L41.7491 405.743L44.5968 434.727L50.674 434.129Z" fill="#1CDC80"/>
<path d="M94.7471 448.207C94.0614 448.274 93.4448 448.083 92.8971 447.633C92.3495 447.184 92.042 446.616 91.9747 445.93L86.0405 385.532C85.9731 384.847 86.1643 384.23 86.6139 383.683C87.0636 383.135 87.6312 382.827 88.3169 382.76L136.28 378.048C136.966 377.98 137.582 378.171 138.13 378.621C138.677 379.071 138.985 379.638 139.052 380.324L140.348 393.507C140.415 394.193 140.224 394.809 139.774 395.357C139.324 395.904 138.757 396.212 138.071 396.279L110.023 399.035L110.601 404.925L136.593 402.372C137.279 402.304 137.895 402.495 138.443 402.945C138.991 403.395 139.298 403.962 139.365 404.648L140.56 416.802C140.627 417.488 140.436 418.105 139.986 418.652C139.537 419.2 138.969 419.507 138.283 419.575L112.292 422.128L112.87 428.019L141.667 425.189C142.352 425.122 142.969 425.313 143.517 425.763C144.064 426.212 144.372 426.78 144.439 427.466L145.734 440.648C145.802 441.334 145.611 441.951 145.161 442.498C144.711 443.046 144.144 443.354 143.458 443.421L94.7471 448.207Z" fill="#1CDC80"/>
<path d="M181.976 440.58C175.369 441.23 169.67 440.877 164.88 439.523C160.153 438.162 156.489 436.099 153.888 433.334C151.282 430.506 149.739 427.291 149.259 423.688C149.204 423.127 149.345 422.641 149.682 422.231C150.076 421.751 150.553 421.484 151.114 421.429L168.878 419.684C169.751 419.598 170.449 419.655 170.972 419.856C171.551 419.988 172.245 420.328 173.055 420.878C175.003 422.134 177.38 422.624 180.185 422.349C182.304 422.141 183.965 421.757 185.169 421.198C186.429 420.571 187.019 419.852 186.939 419.042C186.829 417.92 185.905 417.161 184.167 416.766C182.423 416.308 179.183 415.997 174.447 415.833C158.157 415.294 149.443 409.227 148.304 397.634C147.894 393.458 148.714 389.633 150.764 386.159C152.87 382.616 155.985 379.73 160.108 377.5C164.231 375.27 169.098 373.879 174.707 373.328C180.566 372.753 185.807 373.245 190.428 374.804C195.049 376.364 198.694 378.555 201.363 381.376C204.026 384.135 205.56 386.942 205.966 389.797C206.022 390.358 205.852 390.878 205.459 391.358C205.122 391.768 204.704 391.998 204.205 392.047L185.506 393.884C184.633 393.97 183.939 393.944 183.422 393.806C182.898 393.606 182.298 393.256 181.619 392.756C180.2 391.762 178.493 391.364 176.499 391.56C173.507 391.854 172.097 392.873 172.268 394.619C172.36 395.553 173.153 396.262 174.648 396.745C176.205 397.221 179.003 397.512 183.041 397.619C189.354 397.817 194.46 398.543 198.359 399.796C202.32 401.043 205.277 402.955 207.229 405.532C209.238 408.041 210.444 411.352 210.848 415.466C211.283 419.891 210.326 423.919 207.976 427.548C205.621 431.115 202.163 434.034 197.604 436.307C193.106 438.574 187.897 439.999 181.976 440.58Z" fill="#1CDC80"/>
<path d="M222.299 435.675C221.613 435.742 220.996 435.551 220.449 435.101C219.901 434.652 219.594 434.084 219.526 433.398L213.592 373C213.525 372.315 213.716 371.698 214.166 371.151C214.615 370.603 215.183 370.295 215.869 370.228L234.942 368.354C235.627 368.287 236.244 368.478 236.791 368.928C237.339 369.377 237.647 369.945 237.714 370.63L243.648 431.028C243.715 431.714 243.524 432.331 243.075 432.878C242.625 433.426 242.057 433.733 241.372 433.801L222.299 435.675Z" fill="#1CDC80"/>
<path d="M284.113 430.545C274.452 431.495 266.667 430.088 260.76 426.326C254.852 422.565 251.292 416.432 250.079 407.93C249.851 406.253 249.547 403.482 249.168 399.618C248.782 395.691 248.534 392.852 248.425 391.101C247.941 382.967 250.298 376.537 255.498 371.809C260.691 367.02 268.025 364.16 277.499 363.229C283.857 362.604 289.558 362.988 294.604 364.38C299.649 365.772 303.637 367.929 306.567 370.851C309.497 373.773 311.212 377.128 311.71 380.918C311.765 381.479 311.596 381.999 311.202 382.478C310.865 382.889 310.416 383.122 309.855 383.177L289.192 385.207C287.946 385.33 287.008 385.076 286.38 384.445C286.305 384.327 285.988 383.98 285.428 383.406C284.862 382.769 284.025 382.254 282.916 381.859C281.87 381.459 280.661 381.326 279.29 381.46C274.678 381.914 272.508 384.487 272.78 389.18C272.883 390.869 273.109 393.49 273.458 397.043C273.807 400.595 274.102 403.273 274.342 405.074C275.049 410.354 277.834 412.755 282.696 412.277C285.189 412.032 287.069 411.312 288.336 410.118C289.666 408.918 290.217 407.164 289.99 404.858L289.981 404.765L285.587 405.196C284.901 405.264 284.285 405.073 283.737 404.623C283.189 404.173 282.882 403.606 282.815 402.92L281.795 392.542C281.728 391.856 281.919 391.24 282.368 390.692C282.818 390.144 283.386 389.837 284.071 389.77L309.782 387.243C310.468 387.176 311.085 387.367 311.632 387.817C312.18 388.267 312.487 388.834 312.555 389.52L313.749 401.674C314.288 407.159 313.376 411.969 311.013 416.103C308.713 420.23 305.229 423.531 300.564 426.003C295.954 428.407 290.47 429.921 284.113 430.545Z" fill="#1CDC80"/>
<path d="M327.116 425.376C326.43 425.444 325.813 425.253 325.266 424.803C324.718 424.353 324.411 423.786 324.343 423.1L318.409 362.702C318.342 362.016 318.533 361.4 318.983 360.852C319.432 360.305 320 359.997 320.685 359.93L335.458 358.478C337.203 358.307 338.551 358.898 339.502 360.252L357.848 384.598L355.34 359.074C355.272 358.388 355.464 357.771 355.913 357.224C356.363 356.676 356.93 356.369 357.616 356.301L374.539 354.639C375.224 354.571 375.841 354.762 376.389 355.212C376.936 355.662 377.244 356.229 377.311 356.915L383.245 417.313C383.313 417.998 383.122 418.615 382.672 419.163C382.222 419.71 381.655 420.018 380.969 420.085L366.197 421.537C365.137 421.641 364.305 421.502 363.702 421.121C363.098 420.74 362.581 420.287 362.152 419.763L344.009 397.474L346.315 420.941C346.382 421.627 346.191 422.244 345.741 422.791C345.292 423.339 344.724 423.646 344.038 423.714L327.116 425.376Z" fill="#1CDC80"/>
<path d="M396.324 418.577C395.638 418.644 395.022 418.453 394.474 418.003C393.927 417.553 393.619 416.986 393.552 416.3L387.618 355.902C387.55 355.217 387.741 354.6 388.191 354.052C388.641 353.505 389.208 353.197 389.894 353.13L437.857 348.417C438.543 348.35 439.159 348.541 439.707 348.991C440.255 349.441 440.562 350.008 440.629 350.694L441.925 363.877C441.992 364.562 441.801 365.179 441.351 365.727C440.902 366.274 440.334 366.582 439.648 366.649L411.6 369.405L412.178 375.295L438.17 372.741C438.856 372.674 439.472 372.865 440.02 373.315C440.568 373.764 440.875 374.332 440.942 375.018L442.137 387.172C442.204 387.858 442.013 388.474 441.563 389.022C441.114 389.57 440.546 389.877 439.86 389.944L413.869 392.498L414.447 398.388L443.244 395.559C443.93 395.492 444.546 395.683 445.094 396.133C445.641 396.582 445.949 397.15 446.016 397.835L447.312 411.018C447.379 411.704 447.188 412.321 446.738 412.868C446.288 413.416 445.721 413.723 445.035 413.791L396.324 418.577Z" fill="#1CDC80"/>
<path d="M458.685 412.45C457.999 412.517 457.382 412.326 456.835 411.876C456.287 411.426 455.98 410.859 455.912 410.173L449.978 349.775C449.911 349.09 450.102 348.473 450.552 347.925C451.001 347.378 451.569 347.07 452.255 347.003L479.929 344.284C488.905 343.402 496.116 344.739 501.563 348.294C507.003 351.787 510.073 357.087 510.771 364.192C511.169 368.244 510.617 371.917 509.116 375.211C507.608 378.442 505.394 381.209 502.474 383.509L516.068 403.696C516.292 404.052 516.419 404.386 516.45 404.697C516.505 405.258 516.336 405.778 515.942 406.258C515.605 406.668 515.156 406.901 514.595 406.956L495.428 408.839C494.306 408.95 493.378 408.789 492.644 408.358C491.965 407.858 491.471 407.309 491.16 406.71L481.365 389.642L477.532 390.019L479.286 407.877C479.354 408.562 479.162 409.179 478.713 409.727C478.263 410.274 477.695 410.582 477.01 410.649L458.685 412.45ZM482.611 371.584C483.983 371.45 484.999 370.909 485.662 369.963C486.318 368.955 486.578 367.765 486.444 366.394C486.309 365.022 485.819 363.875 484.973 362.951C484.183 361.959 483.071 361.533 481.638 361.674L474.813 362.345L475.786 372.255L482.611 371.584Z" fill="#1CDC80"/>
</svg>
